<svg width="3457" height="596" xmlns="http://www.w3.org/2000/svg" xmlns:xlink="http://www.w3.org/1999/xlink" xml:space="preserve" overflow="hidden"><defs><clipPath id="clip0"><rect x="313" y="551" width="3457" height="596"/></clipPath></defs><g clip-path="url(#clip0)" transform="translate(-313 -551)"><path d="M2491.05 1045.97C2528.97 1045.97 2566.44 1045.97 2604.51 1045.97 2604.51 1077.15 2604.51 1108.59 2604.51 1140.35 2566.89 1140.35 2529.37 1140.35 2491.05 1140.35 2491.05 1119.67 2491.05 1098.97 2491.05 1077.48 2491.05 1066.61 2491.05 1056.52 2491.05 1045.97ZM1127.02 746.016C1116.32 747.639 1108.25 756.098 1106.56 769.58 1104.83 783.424 1105.23 797.533 1104.68 813.083 1104.68 881.43 1104.55 949.776 1104.85 1018.12 1104.89 1026.52 1106.25 1035.25 1108.86 1043.21 1112.24 1053.53 1120.82 1058.07 1132.11 1057.81 1142.75 1057.56 1151.09 1053.05 1154.3 1042.76 1156.66 1035.21 1157.97 1027.03 1157.99 1019.12 1158.26 942.46 1158.21 865.798 1158.06 789.136 1158.04 781.655 1157.36 774.038 1155.83 766.729 1153.81 757.157 1148.81 749.43 1138.47 746.737 1134.45 745.692 1130.59 745.474 1127.02 746.016ZM1453.08 745.809C1442.88 746.632 1434.95 751.208 1432.24 761.487 1430.01 769.95 1427.84 778.757 1427.8 787.422 1427.47 860.417 1427.38 933.416 1427.92 1006.41 1428.01 1017.59 1430.9 1028.98 1434.01 1039.85 1437.1 1050.69 1446.69 1057.16 1455.78 1056.75 1466.89 1056.25 1474.65 1050.18 1477.33 1037.91 1479.71 1027.07 1481.67 1015.92 1481.87 1004.87 1482.5 971.625 1482.18 938.367 1482.23 903.557 1482.18 865.369 1482.65 827.171 1481.76 789.003 1481.52 778.432 1478.15 767.644 1474.59 757.525 1471.28 748.103 1462.75 745.027 1453.08 745.809ZM1784.47 742.458C1768.5 741.588 1757.43 748.605 1755.51 766.122 1752.31 795.346 1752.02 824.892 1750.48 854.795 1770.2 854.795 1787.97 854.795 1804.75 854.795 1804.75 826.718 1805.62 799.006 1804.35 771.389 1803.8 759.459 1799.86 747.066 1784.47 742.458ZM2987.42 742.334C2981.18 741.002 2974.29 742.52 2968.83 747.283 2965.1 750.532 2962.9 755.534 2959.38 760.762 2950.58 791.59 2956.52 823.089 2954.2 854.73 2972.87 854.73 2990.63 854.73 3008.39 854.73 3008.39 829.353 3008.88 804.228 3008.11 779.142 3007.85 770.841 3005.3 762.214 3002.04 754.488 2999.23 747.849 2993.65 743.666 2987.42 742.334ZM313 663.104C350.777 663.104 388.568 663.104 427.289 663.104 427.289 813.322 427.289 963.729 427.289 1114.91 427.289 1123.7 427.289 1131.7 427.289 1140.19 388.877 1140.19 351.095 1140.19 313 1140.19 313 981.109 313 822.385 313 663.104ZM822.853 657.661C837.253 658.219 851.476 660.226 865.538 664.411 914.887 679.097 950.69 714.434 951.996 771.871 952.598 798.329 952.099 824.809 952.099 851.684 913.439 851.684 875.106 851.684 836.321 851.684 836.321 830.269 836.567 809.231 836.199 788.205 836.054 779.964 835.262 771.586 833.473 763.559 830.747 751.325 824.582 746.683 812.306 745.704 800.844 744.79 790.275 750.403 786.975 761.027 784.401 769.317 782.881 778.281 782.846 786.954 782.538 863.114 782.466 939.276 782.928 1015.43 782.984 1024.74 785.498 1034.45 788.86 1043.21 792.358 1052.33 800.634 1057.06 810.62 1056.74 820.413 1056.43 828.539 1052.08 831.864 1042.47 834.362 1035.25 836.313 1027.46 836.459 1019.89 836.996 992.361 836.672 964.816 836.672 936.79 875.02 936.79 913.329 936.79 951.899 936.79 952.087 938.202 952.398 939.45 952.395 940.698 952.324 969.028 952.885 997.381 951.984 1025.68 950.051 1086.35 914.244 1129.13 854.494 1141.89 816.66 1149.97 779.151 1147.73 742.705 1134 711.139 1122.12 691.729 1098.64 680.38 1067.67 670.409 1040.46 667.76 1012.14 667.777 983.438 667.808 930.412 667.726 877.384 667.94 824.359 668.043 798.839 670.872 773.623 677.122 748.781 689.558 699.354 720.39 669.844 770.767 661.079 773.325 660.635 775.873 660.142 779.108 659.605 793.878 657.994 808.454 657.103 822.853 657.661ZM1140.15 657.661C1163.27 658.401 1185.72 663.142 1206.57 674.981 1247.47 698.201 1267.57 735.062 1272.9 780.725 1274.28 792.559 1274.51 804.574 1274.54 816.509 1274.7 876.028 1274.59 935.548 1274.62 995.067 1274.63 1019.08 1272.35 1042.8 1264.55 1065.65 1250.53 1106.73 1221.47 1131.62 1179.72 1141 1143.48 1149.14 1106.96 1148.9 1071.23 1137.54 1028.14 1123.83 1003.27 1093.12 994.248 1049.82 990.412 1031.41 988.807 1012.25 988.595 993.407 987.91 932.337 988.292 871.253 988.359 810.174 988.394 779.456 992.481 749.579 1008.33 722.482 1011.85 716.466 1016.21 710.939 1020.51 704.742 1045.84 674.349 1078.79 660.705 1116.84 658.139 1124.66 657.612 1132.44 657.414 1140.15 657.661ZM2993.45 657.6C3008 658.02 3022.49 659.916 3036.92 663.706 3084.53 676.213 3111.12 707.728 3119.4 755.448 3121.25 766.147 3122.36 777.107 3122.45 787.959 3122.8 829.007 3122.6 870.06 3122.6 911.859 3066.28 911.859 3011.37 911.859 2955.65 911.859 2955.65 919.5 2955.63 926.42 2955.65 933.341 2955.7 960.109 2955.48 986.881 2955.96 1013.64 2956.12 1022.39 2957.44 1031.27 2959.45 1039.81 2962.36 1052.08 2970.59 1057.8 2983.27 1057.88 2995.26 1057.96 3002.51 1052.93 3005.82 1040.57 3007.74 1033.39 3008.52 1025.73 3008.66 1018.27 3009.03 997.78 3008.78 977.275 3008.78 955.81 3025.45 955.81 3041.72 955.81 3058.75 955.81 3080.29 955.81 3101.03 955.81 3122.41 955.81 3122.41 970.576 3122.84 985.036 3122.31 999.458 3121.39 1024.18 3117.95 1048.54 3109.56 1071.97 3095.41 1111.45 3067 1134.02 3026.31 1141.8 2991.91 1148.37 2957.66 1148.06 2923.79 1138.41 2886.91 1127.9 2864.93 1102.44 2852.86 1067.16 2843.83 1040.77 2841.26 1013.42 2841.26 985.813 2841.24 916.691 2840.85 847.554 2842.12 778.451 2842.79 741.661 2856.26 709.451 2886.3 686.175 2904.9 671.752 2926.35 663.705 2949.63 660.348 2964.29 658.235 2978.9 657.179 2993.45 657.6ZM2322.06 657.201C2342.86 657.327 2363.6 660.816 2384.21 667.991 2423.23 681.576 2445.22 710.712 2453.33 750.259 2456.95 767.926 2457.68 786.186 2459.8 804.836 2418.83 804.836 2379.74 804.836 2340.76 804.836 2339.89 792.699 2339.78 780.756 2338 769.061 2335.82 754.541 2329.33 747.704 2318.54 745.965 2306.11 743.961 2295.41 750.612 2292.93 763.014 2288.79 783.764 2296.38 800.104 2313.22 812.424 2335.01 828.359 2356.83 844.236 2378.6 860.201 2399 875.173 2417.45 892.087 2432.73 912.488 2454.84 942.027 2461.47 975.778 2460.83 1011.59 2460.41 1035.7 2456.5 1059.17 2445.1 1080.77 2427.55 1113.99 2398.98 1132.96 2363.28 1141.11 2327.76 1149.22 2292.08 1148.29 2257.11 1137.33 2212.78 1123.42 2188.95 1091.53 2179.67 1047.32 2173.96 1020.1 2175.85 992.578 2176.17 964.743 2214.19 964.743 2251.78 964.743 2291.08 964.743 2291.08 979.598 2290.88 994.314 2291.16 1009.02 2291.33 1017.81 2291.31 1026.78 2293.04 1035.33 2295.77 1048.83 2305.39 1055.41 2319.71 1055.3 2329.88 1055.23 2337.44 1048.35 2340.02 1035.34 2346.97 1000.06 2335.71 971.689 2307.19 949.771 2280.83 929.523 2254.84 908.821 2228.68 888.33 2194.79 861.783 2177.95 827.052 2177.5 783.933 2177.26 762.663 2178.37 741.9 2188.65 722.054 2205.1 693.79 2228.84 675.818 2259.53 666.589 2280.4 660.312 2301.27 657.075 2322.06 657.201ZM3312.91 657.147C3332.63 657.799 3352.17 661.48 3371.34 669.155 3416.35 687.175 3442.33 720.431 3444.18 769.869 3445.2 796.84 3444.35 823.883 3444.35 851.496 3406.25 851.496 3367.94 851.496 3328.97 851.496 3328.84 849.529 3328.56 847.321 3328.56 845.113 3328.51 824.057 3328.72 803.001 3328.37 781.952 3328.26 775.536 3327.23 769.001 3325.64 762.774 3322.68 751.198 3316.61 746.642 3304.59 745.706 3293.8 744.865 3284.15 749.464 3280.32 759 3277.6 765.83 3275.55 773.466 3275.51 780.755 3275.1 857.431 3275.16 934.11 3275.12 1010.79 3275.12 1015.47 3275.01 1020.18 3275.51 1024.81 3276.77 1036.53 3280.46 1047.09 3291.51 1054.21 3311.89 1061.03 3327.05 1050.66 3328.33 1027.98 3329.48 1007.52 3328.65 986.939 3328.68 966.409 3328.7 956.594 3328.68 946.779 3328.68 936.737 3367.53 936.737 3405.85 936.737 3444.93 936.737 3444.93 951.65 3445.16 966.142 3444.87 980.623 3444.45 1001.39 3445.35 1022.37 3442.64 1042.86 3436.15 1091.81 3406.88 1123.32 3360.89 1138.01 3317.8 1151.78 3274.23 1149.51 3232.06 1132.7 3195.86 1118.27 3177.71 1088.63 3167.98 1052.73 3161.74 1029.77 3159.99 1006.23 3160.02 982.518 3160.1 930.012 3159.9 877.505 3160.2 825.001 3160.35 797.139 3163.22 769.522 3171.13 742.655 3183.48 700.632 3209.96 672.983 3253.38 663.305 3273.28 658.869 3293.18 656.494 3312.91 657.147ZM1781.08 657.094C1796.82 656.973 1812.59 658.657 1828.28 662.226 1879.46 673.87 1909.42 705.987 1916.98 757.884 1919.23 773.241 1919.77 788.93 1919.96 804.482 1920.38 840.049 1920.09 875.624 1920.09 911.933 1863.52 911.933 1808.59 911.933 1752.91 911.933 1752.91 919.049 1752.9 925.451 1752.92 931.853 1753 959.4 1752.82 986.953 1753.36 1014.49 1753.53 1023.23 1755 1032.08 1757.01 1040.61 1759.19 1049.86 1765.18 1056.06 1775.87 1057.42 1794.19 1058.67 1803.58 1051.16 1804.86 1032.35 1806.23 1012.16 1805.93 991.852 1806.31 971.595 1806.4 966.672 1806.32 961.746 1806.32 956.316 1844.05 956.316 1881.58 956.316 1920.09 956.316 1920.09 964.11 1920.16 972.062 1920.07 980.013 1919.73 1008.11 1917.67 1035.92 1909.68 1063.16 1896.6 1107.7 1867.36 1133.85 1822 1142.15 1788.36 1148.3 1754.86 1147.93 1721.74 1138.62 1684.85 1128.26 1662.59 1103.11 1650.38 1067.81 1640.83 1040.19 1638.46 1011.53 1638.37 982.622 1638.17 920.247 1638.21 857.872 1638.35 795.497 1638.41 769.302 1641.84 743.731 1654.6 720.222 1671.9 688.373 1699.91 670.805 1734.03 662.8 1749.62 659.144 1765.34 657.216 1781.08 657.094ZM2157.1 656.695C2157.1 688.505 2157.1 720.059 2157.1 750.816 2138.96 753.643 2121.08 756.419 2103.2 759.23 2101.68 759.472 2100.18 759.906 2098.68 760.311 2076.72 766.25 2075.41 767.948 2075.41 790.498 2075.41 815.185 2075.41 839.873 2075.41 865.34 2075.41 957.292 2075.41 1048.46 2075.41 1140.15 2037.05 1140.15 1999.29 1140.15 1961.26 1140.15 1961.26 981.127 1961.26 822.412 1961.26 663.126 1998.93 663.126 2036.71 663.126 2075.3 663.126 2075.3 678.834 2075.3 694.725 2075.3 710.615 2090.59 674.136 2118.39 657.752 2157.1 656.695ZM491.56 580.374C528.789 580.374 565.51 580.374 602.815 580.374 602.815 613.651 602.815 646.805 602.815 680.808 613.842 680.808 624.323 680.808 635.106 680.808 635.106 710.136 635.106 738.608 635.106 767.94 624.377 767.94 613.878 767.94 602.873 767.94 602.873 775.248 602.873 781.703 602.873 788.933 602.873 870.551 602.845 951.393 602.924 1032.24 602.928 1038.46 603.518 1044.69 604.087 1050.89 604.652 1057.06 608.407 1060.11 614.453 1060.23 621.165 1060.37 627.881 1060.27 635.02 1060.27 635.02 1085.32 635.02 1111.21 635.02 1137.67 605.731 1144 576.411 1148.84 546.375 1144.38 514.336 1139.62 497.393 1122.09 493.511 1089.51 492.439 1080.5 491.887 1071.38 491.876 1062.31 491.762 967.168 491.806 872.03 491.807 776.889 491.807 774.094 491.807 771.299 491.807 767.922 481.12 767.922 471.069 767.922 460.525 767.922 460.525 738.878 460.525 710.415 460.525 681.161 470.57 681.161 480.825 681.161 491.56 681.161 491.56 647.209 491.56 614.036 491.56 580.374ZM2665.11 580.262C2702.48 580.262 2739.02 580.262 2776.34 580.262 2776.34 613.531 2776.34 646.894 2776.34 680.74 2787.42 680.74 2797.73 680.74 2808.6 680.74 2808.6 709.684 2808.6 738.143 2808.6 767.363 2798.39 767.363 2787.89 767.363 2776.51 767.363 2776.51 821.583 2776.51 875.048 2776.51 929.294 2776.51 965.949 2776.45 1001.82 2776.54 1037.7 2776.59 1059.36 2779.52 1061.92 2801.24 1060.03 2803.57 1059.83 2805.87 1059.51 2808.67 1059.18 2808.67 1085.26 2808.67 1111.12 2808.67 1137.67 2777.91 1144.12 2747.08 1149.69 2715.53 1143.41 2686.21 1137.57 2671.37 1121.75 2667.45 1092.03 2666.11 1081.77 2665.58 1071.33 2665.56 1060.97 2665.42 966.345 2665.49 871.721 2665.49 777.095 2665.49 774.294 2665.49 771.491 2665.49 767.855 2654.52 767.855 2644.26 767.855 2633.7 767.855 2633.7 738.568 2633.7 710.122 2633.7 681.177 2644.15 681.177 2654.21 681.177 2665.11 681.177 2665.11 647.34 2665.11 613.988 2665.11 580.262ZM1481.98 576.931C1520.31 576.931 1557.85 576.931 1595.91 576.931 1595.91 764.574 1595.91 952.27 1595.91 1140.31 1558.12 1140.31 1520.55 1140.31 1482.25 1140.31 1482.25 1124.61 1482.25 1109.25 1482.25 1094.17 1475.61 1104.66 1470.12 1115.88 1462.32 1125.16 1445.58 1145.05 1422.48 1147.33 1398.33 1145.67 1350.91 1142.43 1325.31 1111.75 1318.88 1064.6 1314.78 1034.62 1315.02 1004.05 1313.31 972.971 1313.8 902.809 1314.11 833.426 1314.87 764.047 1315.1 742.202 1320.45 721.452 1331.65 702.438 1345.92 678.191 1366.59 663.015 1394.66 659.056 1420.5 655.411 1445.49 657.431 1467.45 673.534 1472.38 677.148 1476.69 681.609 1481.98 686.296 1481.98 649.663 1481.98 613.509 1481.98 576.931ZM3484.85 576.872C3523.94 576.872 3562.77 576.872 3602.35 576.872 3602.35 619.886 3602.35 662.614 3602.35 707.626 3606.67 699.509 3609.35 693.109 3613.19 687.505 3626.05 668.746 3643.94 658.749 3666.85 657.818 3693.44 656.738 3718.19 661.71 3738.1 680.736 3756.55 698.367 3764.96 721.083 3768.17 745.842 3769.45 755.6 3769.9 765.526 3769.92 775.375 3770.03 894.701 3770 1014.03 3770 1133.35 3770 1135.42 3770 1137.49 3770 1140.11 3731.91 1140.11 3694.17 1140.11 3655.95 1140.11 3655.95 1137.07 3655.95 1134.24 3655.95 1131.41 3655.95 1016.24 3655.96 901.075 3655.89 785.907 3655.89 780.221 3655.54 774.455 3654.56 768.867 3651.83 753.357 3641.98 744.639 3627.83 744.65 3615.6 744.661 3605.62 754.523 3603.25 769.471 3602.44 774.575 3602.36 779.832 3602.36 785.018 3602.32 877.048 3602.33 969.077 3602.33 1061.88 3602.33 1088.35 3602.33 1114.03 3602.33 1140.19 3562.85 1140.19 3524.01 1140.19 3484.85 1140.19 3484.85 952.396 3484.85 764.822 3484.85 576.872ZM313.079 551C332.805 551 352.646 551 373.268 551 391.402 551 408.757 551 426.699 551 426.699 577.531 426.699 603.559 426.699 630.097 388.95 630.097 351.211 630.097 313.079 630.097 313.079 604 313.079 578.14 313.079 551Z" fill="#020202" fill-rule="evenodd"/></g></svg>